<svg xmlns="http://www.w3.org/2000/svg" xmlns:xlink="http://www.w3.org/1999/xlink" width="1020" height="168.55"><rect width="1020" height="168.55" rx="5" ry="5" class="a"/><svg y="0%" x="0%"><circle cx="20" cy="20" r="6" fill="#ff5f58"/><circle cx="40" cy="20" r="6" fill="#ffbd2e"/><circle cx="60" cy="20" r="6" fill="#18c132"/></svg><svg height="108.55" viewBox="0 0 98 10.855" width="980" x="15" xmlns="http://www.w3.org/2000/svg" xmlns:xlink="http://www.w3.org/1999/xlink" y="50"><style>@keyframes n{0%{transform:translateX(-98px)}3.1%{transform:translateX(-196px)}7.5%{transform:translateX(-294px)}12%{transform:translateX(-392px)}15%{transform:translateX(-490px)}16.4%{transform:translateX(-588px)}20.9%{transform:translateX(-686px)}23.6%{transform:translateX(-784px)}23.9%{transform:translateX(-882px)}24.2%{transform:translateX(-980px)}25.3%{transform:translateX(-1078px)}29.7%{transform:translateX(-1176px)}34.2%{transform:translateX(-1274px)}38.6%{transform:translateX(-1372px)}43%{transform:translateX(-1470px)}47.5%{transform:translateX(-1568px)}50.4%{transform:translateX(-1764px)}51%{transform:translateX(-1862px)}66.8%{transform:translateX(-1960px)}68.2%{transform:translateX(-2058px)}68.6%{transform:translateX(-2156px)}to{transform:translateX(-2254px)}}.a{fill:#282d35}.f,.g,.h,.i,.j,.k{fill:#a8cc8c;white-space:pre}.g,.h,.i,.j,.k{fill:#b9bfca}.h,.i,.j,.k{fill:#b9c0cb}.i,.j,.k{fill:#dbab79}.j,.k{fill:#66c2cd}.k{fill:#e88388}</style><g font-family="Monaco,Consolas,Menlo,'Bitstream Vera Sans Mono','Powerline Symbols',monospace" font-size="1.67"><defs><symbol id="1"><text y="1.67" class="f">➜</text><text x="2.004" y="1.67" class="g">~</text><text x="4.008" y="1.67" class="f">nordvpn</text><text x="12.024" y="1.67" class="h">c</text><text x="14.028" y="1.67" class="h">se</text></symbol><symbol id="2"><text y="1.67" class="h">\</text></symbol><symbol id="3">0<text y="1.67" class="f">tmux-nordvpn</text>0<text x="13.026" y="1.67" class="g">»</text>0<text x="15.03" y="1.67" class="i">0</text>0<text x="17.034" y="1.67" class="j">0 | NordVPN</text>0<text x="29.058" y="1.67" class="k">Disconnected</text>0<text x="42.084" y="1.67" class="j"></text></symbol><symbol id="4"><text y="1.67" class="h">|</text></symbol><symbol id="5"><text y="1.67" class="h">/</text></symbol><symbol id="6"><text y="1.67" class="h">-</text></symbol><symbol id="7"><text y="1.67" class="f">Connecting</text><text x="11.022" y="1.67" class="f">to</text><text x="14.028" y="1.67" class="f">Sweden</text><text x="21.042" y="1.67" class="f">#410</text><text x="26.052" y="1.67" class="f">(se410.nordvpn.com)</text></symbol><symbol id="8">0<text y="1.67" class="f">tmux-nordvpn</text>0<text x="13.026" y="1.67" class="g">»</text>0<text x="15.03" y="1.67" class="i">0</text>0<text x="17.034" y="1.67" class="j">0 | NordVPN</text>0<text x="29.058" y="1.67" class="i">Connecting to Sweden</text>0<text x="49.098" y="1.67" class="j"></text></symbol><symbol id="9"><text y="1.67" class="f">You</text><text x="4.008" y="1.67" class="f">are</text><text x="8.016" y="1.67" class="f">connected</text><text x="18.036" y="1.67" class="f">to</text><text x="21.042" y="1.67" class="f">Sweden</text><text x="28.056" y="1.67" class="f">#410</text><text x="33.066" y="1.67" class="f">(se410.nordvpn.com)!</text></symbol><symbol id="10"><text y="1.67" class="f">➜</text><text x="2.004" y="1.67" class="g">~</text></symbol><symbol id="11">0<text y="1.67" class="f">tmux-nordvpn</text>0<text x="13.026" y="1.67" class="g">»</text>0<text x="15.03" y="1.67" class="i">0</text>0<text x="17.034" y="1.67" class="j">0 | NordVPN</text>0<text x="29.058" y="1.67" class="f">Connected to Sweden</text>0<text x="48.096" y="1.67" class="j"></text></symbol><symbol id="a"><path fill="transparent" d="M0 0h98v5H0z"/></symbol><symbol id="b"><path fill="#6f7683" d="M0 0h1.102v2.171H0z"/></symbol></defs><path class="a" d="M0 0h98v10.855H0z"/><g style="animation-duration:4.513774s;animation-iteration-count:infinite;animation-name:n;animation-timing-function:steps(1,end)"><svg width="2352"><svg><use xlink:href="#a"/><use xlink:href="#b" x="-.004"/></svg><svg x="98"><use xlink:href="#a"/><use xlink:href="#b" x=".996" y="2.146"/><use xlink:href="#1"/><use xlink:href="#2" y="2.171"/><use xlink:href="#3" y="8.684"/></svg><svg x="196"><use xlink:href="#a"/><use xlink:href="#b" x=".996" y="2.146"/><use xlink:href="#1"/><use xlink:href="#4" y="2.171"/><use xlink:href="#3" y="8.684"/></svg><svg x="294"><use xlink:href="#a"/><use xlink:href="#b" x=".996" y="2.146"/><use xlink:href="#1"/><use xlink:href="#5" y="2.171"/><use xlink:href="#3" y="8.684"/></svg><svg x="392"><use xlink:href="#a"/><use xlink:href="#b" x=".996" y="2.146"/><use xlink:href="#1"/><use xlink:href="#6" y="2.171"/><use xlink:href="#3" y="8.684"/></svg><svg x="490"><use xlink:href="#a"/><use xlink:href="#b" x="-.004" y="4.317"/><use xlink:href="#1"/><use xlink:href="#7" y="2.171"/><use xlink:href="#3" y="8.684"/></svg><svg x="588"><use xlink:href="#a"/><use xlink:href="#b" x=".996" y="4.317"/><use xlink:href="#1"/><use xlink:href="#7" y="2.171"/><use xlink:href="#2" y="4.342"/><use xlink:href="#3" y="8.684"/></svg><svg x="686"><use xlink:href="#a"/><use xlink:href="#b" x=".996" y="4.317"/><use xlink:href="#1"/><use xlink:href="#7" y="2.171"/><use xlink:href="#4" y="4.342"/><use xlink:href="#3" y="8.684"/></svg><svg x="784"><use xlink:href="#a"/><use xlink:href="#b" x=".996" y="4.317"/><use xlink:href="#1"/><use xlink:href="#7" y="2.171"/><use xlink:href="#4" y="4.342"/>0<text y="10.354" class="f">tmux-nordvpn</text>0<text x="13.026" y="10.354" class="g">»</text>0<text x="15.03" y="10.354" class="i">0</text>0<text x="17.034" y="10.354" class="j">0 | NordVPN</text>0<text x="29.058" y="10.354" class="k">Disconnected Sweden</text>0<text x="48.096" y="10.354" class="j"></text></svg><svg x="882"><use xlink:href="#a"/><use xlink:href="#b" x=".996" y="4.317"/><use xlink:href="#1"/><use xlink:href="#7" y="2.171"/><use xlink:href="#4" y="4.342"/>0<text y="10.354" class="f">tmux-nordvpn</text>0<text x="13.026" y="10.354" class="g">»</text>0<text x="15.03" y="10.354" class="i">0</text>0<text x="17.034" y="10.354" class="j">0 | NordVPN</text>0<text x="29.058" y="10.354" class="k">Connecting to Sweden</text>0<text x="49.098" y="10.354" class="j"></text></svg><svg x="980"><use xlink:href="#a"/><use xlink:href="#b" x=".996" y="4.317"/><use xlink:href="#1"/><use xlink:href="#7" y="2.171"/><use xlink:href="#4" y="4.342"/><use xlink:href="#8" y="8.684"/></svg><svg x="1078"><use xlink:href="#a"/><use xlink:href="#b" x=".996" y="4.317"/><use xlink:href="#1"/><use xlink:href="#7" y="2.171"/><use xlink:href="#5" y="4.342"/><use xlink:href="#8" y="8.684"/></svg><svg x="1176"><use xlink:href="#a"/><use xlink:href="#b" x=".996" y="4.317"/><use xlink:href="#1"/><use xlink:href="#7" y="2.171"/><use xlink:href="#6" y="4.342"/><use xlink:href="#8" y="8.684"/></svg><svg x="1274"><use xlink:href="#a"/><use xlink:href="#b" x=".996" y="4.317"/><use xlink:href="#1"/><use xlink:href="#7" y="2.171"/><use xlink:href="#2" y="4.342"/><use xlink:href="#8" y="8.684"/></svg><svg x="1372"><use xlink:href="#a"/><use xlink:href="#b" x=".996" y="4.317"/><use xlink:href="#1"/><use xlink:href="#7" y="2.171"/><use xlink:href="#4" y="4.342"/><use xlink:href="#8" y="8.684"/></svg><svg x="1470"><use xlink:href="#a"/><use xlink:href="#b" x=".996" y="4.317"/><use xlink:href="#1"/><use xlink:href="#7" y="2.171"/><use xlink:href="#5" y="4.342"/><use xlink:href="#8" y="8.684"/></svg><svg x="1568"><use xlink:href="#a"/><use xlink:href="#b" x=".996" y="4.317"/><use xlink:href="#1"/><use xlink:href="#7" y="2.171"/><use xlink:href="#6" y="4.342"/><use xlink:href="#8" y="8.684"/></svg><svg x="1666"><use xlink:href="#a"/><use xlink:href="#b" x="-.004" y="6.488"/><use xlink:href="#1"/><use xlink:href="#7" y="2.171"/><use xlink:href="#9" y="4.342"/><use xlink:href="#8" y="8.684"/></svg><svg x="1764"><use xlink:href="#a"/><use xlink:href="#b" x="-.004" y="6.488"/><use xlink:href="#1"/><use xlink:href="#7" y="2.171"/><use xlink:href="#9" y="4.342"/><use xlink:href="#8" y="8.684"/></svg><svg x="1862"><use xlink:href="#a"/><use xlink:href="#b" x="3.996" y="6.488"/><use xlink:href="#1"/><use xlink:href="#7" y="2.171"/><use xlink:href="#9" y="4.342"/><use xlink:href="#10" y="6.513"/><use xlink:href="#8" y="8.684"/></svg><svg x="1960"><use xlink:href="#a"/><use xlink:href="#b" x="3.996" y="6.488"/><use xlink:href="#1"/><use xlink:href="#7" y="2.171"/><use xlink:href="#9" y="4.342"/><use xlink:href="#10" y="6.513"/><use xlink:href="#8" y="8.684"/></svg><svg x="2058"><use xlink:href="#a"/><use xlink:href="#b" x="3.996" y="6.488"/><use xlink:href="#1"/><use xlink:href="#7" y="2.171"/><use xlink:href="#9" y="4.342"/><use xlink:href="#10" y="6.513"/>0<text y="10.354" class="f">tmux-nordvpn</text>0<text x="13.026" y="10.354" class="g">»</text>0<text x="15.03" y="10.354" class="i">0</text>0<text x="17.034" y="10.354" class="j">0 | NordVPN</text>0<text x="29.058" y="10.354" class="i">Connected to Sweden</text>0<text x="48.096" y="10.354" class="j"></text></svg><svg x="2156"><use xlink:href="#a"/><use xlink:href="#b" x="3.996" y="6.488"/><use xlink:href="#1"/><use xlink:href="#7" y="2.171"/><use xlink:href="#9" y="4.342"/><use xlink:href="#10" y="6.513"/><use xlink:href="#11" y="8.684"/></svg><svg x="2254"><use xlink:href="#a"/><use xlink:href="#b" x="-.004" y="8.659"/><use xlink:href="#1"/><use xlink:href="#7" y="2.171"/><use xlink:href="#9" y="4.342"/><text y="8.183" class="f">➜</text><text x="2.004" y="8.183" class="g">~</text><text x="4.008" y="8.183" class="h">[exited]</text><use xlink:href="#11" y="8.684"/></svg></svg></g></g></svg></svg>